<mxfile host="app.diagrams.net" agent="Mozilla/5.0 (Windows NT 10.0; Win64; x64) AppleWebKit/537.36 (KHTML, like Gecko) Chrome/132.0.0.0 Safari/537.36" version="26.0.11">
  <diagram name="Page-1" id="jXQSoq4z314vigluGlp2">
    <mxGraphModel dx="794" dy="446" grid="1" gridSize="10" guides="1" tooltips="1" connect="1" arrows="1" fold="1" page="1" pageScale="1" pageWidth="827" pageHeight="1169" math="0" shadow="0">
      <root>
        <mxCell id="0" />
        <mxCell id="1" parent="0" />
        <mxCell id="oZNpd9XSh-hsP6-YX84t-8" style="edgeStyle=orthogonalEdgeStyle;rounded=0;orthogonalLoop=1;jettySize=auto;html=1;exitX=0;exitY=0.25;exitDx=0;exitDy=0;exitPerimeter=0;entryX=0;entryY=0.25;entryDx=0;entryDy=0;entryPerimeter=0;" edge="1" parent="1" target="oZNpd9XSh-hsP6-YX84t-1">
          <mxGeometry relative="1" as="geometry">
            <mxPoint x="90" y="115" as="sourcePoint" />
          </mxGeometry>
        </mxCell>
        <mxCell id="oZNpd9XSh-hsP6-YX84t-9" style="edgeStyle=orthogonalEdgeStyle;rounded=0;orthogonalLoop=1;jettySize=auto;html=1;exitX=0;exitY=0.75;exitDx=0;exitDy=0;exitPerimeter=0;entryX=0;entryY=0.75;entryDx=0;entryDy=0;entryPerimeter=0;" edge="1" parent="1" target="oZNpd9XSh-hsP6-YX84t-1">
          <mxGeometry relative="1" as="geometry">
            <mxPoint x="90" y="145" as="sourcePoint" />
          </mxGeometry>
        </mxCell>
        <mxCell id="oZNpd9XSh-hsP6-YX84t-1" value="" style="verticalLabelPosition=bottom;shadow=0;dashed=0;align=center;html=1;verticalAlign=top;shape=mxgraph.electrical.logic_gates.logic_gate;operation=xor;" vertex="1" parent="1">
          <mxGeometry x="170" y="100" width="100" height="60" as="geometry" />
        </mxCell>
        <mxCell id="oZNpd9XSh-hsP6-YX84t-2" value="" style="shape=or;whiteSpace=wrap;html=1;" vertex="1" parent="1">
          <mxGeometry x="384" y="100" width="60" height="80" as="geometry" />
        </mxCell>
        <mxCell id="oZNpd9XSh-hsP6-YX84t-10" style="edgeStyle=orthogonalEdgeStyle;rounded=0;orthogonalLoop=1;jettySize=auto;html=1;exitX=0;exitY=0.25;exitDx=0;exitDy=0;exitPerimeter=0;entryX=0;entryY=0.25;entryDx=0;entryDy=0;entryPerimeter=0;" edge="1" parent="1" target="oZNpd9XSh-hsP6-YX84t-3">
          <mxGeometry relative="1" as="geometry">
            <mxPoint x="90" y="310" as="sourcePoint" />
          </mxGeometry>
        </mxCell>
        <mxCell id="oZNpd9XSh-hsP6-YX84t-3" value="" style="shape=or;whiteSpace=wrap;html=1;" vertex="1" parent="1">
          <mxGeometry x="384" y="290" width="60" height="80" as="geometry" />
        </mxCell>
        <mxCell id="oZNpd9XSh-hsP6-YX84t-26" style="edgeStyle=orthogonalEdgeStyle;rounded=0;orthogonalLoop=1;jettySize=auto;html=1;exitX=1;exitY=0.5;exitDx=0;exitDy=0;exitPerimeter=0;" edge="1" parent="1" source="oZNpd9XSh-hsP6-YX84t-6">
          <mxGeometry relative="1" as="geometry">
            <mxPoint x="720" y="160" as="targetPoint" />
          </mxGeometry>
        </mxCell>
        <mxCell id="oZNpd9XSh-hsP6-YX84t-6" value="" style="verticalLabelPosition=bottom;shadow=0;dashed=0;align=center;html=1;verticalAlign=top;shape=mxgraph.electrical.logic_gates.logic_gate;operation=or;" vertex="1" parent="1">
          <mxGeometry x="580" y="130" width="100" height="60" as="geometry" />
        </mxCell>
        <mxCell id="oZNpd9XSh-hsP6-YX84t-25" style="edgeStyle=orthogonalEdgeStyle;rounded=0;orthogonalLoop=1;jettySize=auto;html=1;exitX=1;exitY=0.5;exitDx=0;exitDy=0;exitPerimeter=0;" edge="1" parent="1" source="oZNpd9XSh-hsP6-YX84t-7">
          <mxGeometry relative="1" as="geometry">
            <mxPoint x="720" y="340" as="targetPoint" />
          </mxGeometry>
        </mxCell>
        <mxCell id="oZNpd9XSh-hsP6-YX84t-7" value="" style="verticalLabelPosition=bottom;shadow=0;dashed=0;align=center;html=1;verticalAlign=top;shape=mxgraph.electrical.logic_gates.logic_gate;operation=xor;" vertex="1" parent="1">
          <mxGeometry x="580" y="310" width="100" height="60" as="geometry" />
        </mxCell>
        <mxCell id="oZNpd9XSh-hsP6-YX84t-12" value="a" style="text;html=1;align=center;verticalAlign=middle;resizable=0;points=[];autosize=1;strokeColor=none;fillColor=none;" vertex="1" parent="1">
          <mxGeometry x="55" y="98" width="30" height="30" as="geometry" />
        </mxCell>
        <mxCell id="oZNpd9XSh-hsP6-YX84t-15" value="b" style="text;html=1;align=center;verticalAlign=middle;resizable=0;points=[];autosize=1;strokeColor=none;fillColor=none;" vertex="1" parent="1">
          <mxGeometry x="55" y="130" width="30" height="30" as="geometry" />
        </mxCell>
        <mxCell id="oZNpd9XSh-hsP6-YX84t-16" value="c" style="text;html=1;align=center;verticalAlign=middle;resizable=0;points=[];autosize=1;strokeColor=none;fillColor=none;" vertex="1" parent="1">
          <mxGeometry x="55" y="298" width="30" height="30" as="geometry" />
        </mxCell>
        <mxCell id="oZNpd9XSh-hsP6-YX84t-17" style="edgeStyle=orthogonalEdgeStyle;rounded=0;orthogonalLoop=1;jettySize=auto;html=1;exitX=0;exitY=0.25;exitDx=0;exitDy=0;exitPerimeter=0;entryX=0;entryY=0.25;entryDx=0;entryDy=0;entryPerimeter=0;" edge="1" parent="1" source="oZNpd9XSh-hsP6-YX84t-1" target="oZNpd9XSh-hsP6-YX84t-2">
          <mxGeometry relative="1" as="geometry">
            <Array as="points">
              <mxPoint x="150" y="115" />
              <mxPoint x="150" y="70" />
              <mxPoint x="327" y="70" />
              <mxPoint x="327" y="120" />
            </Array>
          </mxGeometry>
        </mxCell>
        <mxCell id="oZNpd9XSh-hsP6-YX84t-18" style="edgeStyle=orthogonalEdgeStyle;rounded=0;orthogonalLoop=1;jettySize=auto;html=1;exitX=0;exitY=0.75;exitDx=0;exitDy=0;exitPerimeter=0;entryX=0;entryY=0.75;entryDx=0;entryDy=0;entryPerimeter=0;" edge="1" parent="1" source="oZNpd9XSh-hsP6-YX84t-1" target="oZNpd9XSh-hsP6-YX84t-2">
          <mxGeometry relative="1" as="geometry">
            <Array as="points">
              <mxPoint x="150" y="145" />
              <mxPoint x="150" y="180" />
              <mxPoint x="340" y="180" />
              <mxPoint x="340" y="160" />
            </Array>
          </mxGeometry>
        </mxCell>
        <mxCell id="oZNpd9XSh-hsP6-YX84t-19" style="edgeStyle=orthogonalEdgeStyle;rounded=0;orthogonalLoop=1;jettySize=auto;html=1;exitX=1;exitY=0.5;exitDx=0;exitDy=0;exitPerimeter=0;entryX=0;entryY=0.75;entryDx=0;entryDy=0;entryPerimeter=0;" edge="1" parent="1" source="oZNpd9XSh-hsP6-YX84t-1" target="oZNpd9XSh-hsP6-YX84t-3">
          <mxGeometry relative="1" as="geometry" />
        </mxCell>
        <mxCell id="oZNpd9XSh-hsP6-YX84t-20" style="edgeStyle=orthogonalEdgeStyle;rounded=0;orthogonalLoop=1;jettySize=auto;html=1;exitX=0;exitY=0.25;exitDx=0;exitDy=0;exitPerimeter=0;entryX=0;entryY=0.25;entryDx=0;entryDy=0;entryPerimeter=0;" edge="1" parent="1" source="oZNpd9XSh-hsP6-YX84t-3" target="oZNpd9XSh-hsP6-YX84t-7">
          <mxGeometry relative="1" as="geometry" />
        </mxCell>
        <mxCell id="oZNpd9XSh-hsP6-YX84t-21" style="edgeStyle=orthogonalEdgeStyle;rounded=0;orthogonalLoop=1;jettySize=auto;html=1;exitX=0;exitY=0.75;exitDx=0;exitDy=0;exitPerimeter=0;entryX=0;entryY=0.75;entryDx=0;entryDy=0;entryPerimeter=0;" edge="1" parent="1" source="oZNpd9XSh-hsP6-YX84t-3" target="oZNpd9XSh-hsP6-YX84t-7">
          <mxGeometry relative="1" as="geometry">
            <Array as="points">
              <mxPoint x="340" y="350" />
              <mxPoint x="340" y="420" />
              <mxPoint x="550" y="420" />
              <mxPoint x="550" y="355" />
            </Array>
          </mxGeometry>
        </mxCell>
        <mxCell id="oZNpd9XSh-hsP6-YX84t-22" style="edgeStyle=orthogonalEdgeStyle;rounded=0;orthogonalLoop=1;jettySize=auto;html=1;exitX=1;exitY=0.5;exitDx=0;exitDy=0;exitPerimeter=0;entryX=0;entryY=0.75;entryDx=0;entryDy=0;entryPerimeter=0;" edge="1" parent="1" source="oZNpd9XSh-hsP6-YX84t-3" target="oZNpd9XSh-hsP6-YX84t-6">
          <mxGeometry relative="1" as="geometry">
            <Array as="points">
              <mxPoint x="500" y="330" />
              <mxPoint x="500" y="175" />
            </Array>
          </mxGeometry>
        </mxCell>
        <mxCell id="oZNpd9XSh-hsP6-YX84t-23" style="edgeStyle=orthogonalEdgeStyle;rounded=0;orthogonalLoop=1;jettySize=auto;html=1;exitX=1;exitY=0.5;exitDx=0;exitDy=0;exitPerimeter=0;entryX=0;entryY=0.25;entryDx=0;entryDy=0;entryPerimeter=0;" edge="1" parent="1" source="oZNpd9XSh-hsP6-YX84t-2" target="oZNpd9XSh-hsP6-YX84t-6">
          <mxGeometry relative="1" as="geometry">
            <Array as="points">
              <mxPoint x="580" y="140" />
            </Array>
          </mxGeometry>
        </mxCell>
        <mxCell id="oZNpd9XSh-hsP6-YX84t-27" value="carry" style="text;html=1;align=center;verticalAlign=middle;resizable=0;points=[];autosize=1;strokeColor=none;fillColor=none;" vertex="1" parent="1">
          <mxGeometry x="715" y="138" width="50" height="30" as="geometry" />
        </mxCell>
        <mxCell id="oZNpd9XSh-hsP6-YX84t-28" value="sum" style="text;html=1;align=center;verticalAlign=middle;resizable=0;points=[];autosize=1;strokeColor=none;fillColor=none;" vertex="1" parent="1">
          <mxGeometry x="715" y="318" width="50" height="30" as="geometry" />
        </mxCell>
        <mxCell id="oZNpd9XSh-hsP6-YX84t-29" value="A.B + C.( A^B )" style="text;html=1;align=center;verticalAlign=middle;resizable=0;points=[];autosize=1;strokeColor=none;fillColor=none;" vertex="1" parent="1">
          <mxGeometry x="670" y="98" width="100" height="30" as="geometry" />
        </mxCell>
        <mxCell id="oZNpd9XSh-hsP6-YX84t-30" value="(A ^ B) ^ C" style="text;html=1;align=center;verticalAlign=middle;resizable=0;points=[];autosize=1;strokeColor=none;fillColor=none;" vertex="1" parent="1">
          <mxGeometry x="700" y="298" width="80" height="30" as="geometry" />
        </mxCell>
      </root>
    </mxGraphModel>
  </diagram>
</mxfile>
